<svg width="24px" height="24px" viewBox="0 0 24 24" version="1.1" xmlns="http://www.w3.org/2000/svg" xmlns:xlink="http://www.w3.org/1999/xlink">
    <title>Actions/Check</title>
    <g id="Route-Editor" stroke="none" stroke-width="1" fill="none" fill-rule="evenodd">
        <g id="0" transform="translate(-1466.000000, -443.000000)">
            <g id="Actions/Check" transform="translate(1466.000000, 443.000000)">                
                <path d="M10.4125096,16.2892838 C10.1425096,16.2892838 9.88420956,16.1893838 9.68980956,16.0111838 L5.88190956,12.5200838 C5.46430956,12.1393838 5.44990956,11.5084838 5.84950956,11.1115838 C6.24910956,10.7146838 6.90970956,10.7011838 7.32730956,11.0809838 L10.3675096,13.8700838 L16.6306096,7.40628382 C16.8844096,7.14618382 17.2642096,7.03368382 17.6287096,7.11288382 C17.9923096,7.19208382 18.2839096,7.44948382 18.3946096,7.78968382 C18.5044096,8.12898382 18.4162096,8.49888382 18.1624096,8.75988382 L11.1766096,15.9697838 C10.9876096,16.1659838 10.7230096,16.2811838 10.4431096,16.2892838 L10.4125096,16.2892838 Z" id="Fill-1" fill="#FFFFFF"/>
            </g>
        </g>
    </g>
</svg>