<?xml version="1.0" encoding="UTF-8"?>
<svg viewBox="0 0 21 18" version="1.1" xmlns="http://www.w3.org/2000/svg" xmlns:xlink="http://www.w3.org/1999/xlink">
    <title>Form Icons/Direction Up</title>
    <g id="Route-Editor" stroke="none" stroke-width="1" fill="none" fill-rule="evenodd">
        <g id="0" transform="translate(-1749.000000, -723.000000)" fill-rule="nonzero">
            <g id="Form-Icons/Direction-Up" transform="translate(1749.991871, 723.500000)">
                <path d="M14.383603,0.0756953906 C14.6351105,-0.0252315342 14.9163161,-0.0252315342 15.1678237,0.0756953906 C15.2191499,0.102724329 15.2681153,0.133950633 15.3142116,0.169049954 L15.4003334,0.216990604 L15.481512,0.272777246 L19.6640227,4.12105979 C20.0884736,4.52098413 20.1142215,5.17811424 19.7215323,5.59917371 C19.3615671,5.98514488 18.7749507,6.03877165 18.3527457,5.74497517 L18.2419691,5.65622372 L15.8161129,3.42608694 L15.8161617,5.94126469 L15.8228962,6.00938547 L15.8251727,15.9527533 C15.8251727,16.5311317 15.3525278,17.0000002 14.7694909,17.0000002 C14.1864539,17.0000002 13.7138091,16.5311317 13.7138091,15.9527533 L13.7138091,6.07871296 C13.7138091,6.02750675 13.7175138,5.97715891 13.7246719,5.92791881 L13.7248576,3.41571421 L11.3094576,5.64585099 C11.0348861,5.89784671 10.6456505,5.98538857 10.2883721,5.87550041 C9.93109393,5.76561224 9.66005204,5.47498867 9.57734537,5.1131048 C9.50497704,4.7964564 9.58642303,4.46734245 9.79185679,4.22119416 L9.88740398,4.12105979 L14.0699147,0.272777246 C14.1222613,0.233048097 14.1782774,0.198317786 14.2372151,0.169049954 C14.2833113,0.133950633 14.3322768,0.102724329 14.383603,0.0756953906 Z" id="Combined-Shape" fill="#FFFFFF"/>
                <path d="M4.83219634,0.0756951936 C5.08370394,-0.0252317312 5.36490949,-0.0252317312 5.6164171,0.0756951936 C5.66774322,0.102724132 5.71670873,0.133950436 5.76280497,0.169049757 L5.8489268,0.216990407 L5.9301054,0.272777049 L10.1126161,4.1210596 C10.5370669,4.52098393 10.5628149,5.17811404 10.1701256,5.59917351 C9.81016044,5.98514468 9.22354403,6.03877146 8.80133911,5.74497497 L8.69056245,5.65622353 L6.26470625,3.42608674 L6.26475504,5.94126449 L6.27148961,6.00938527 L6.27376603,15.9527531 C6.27376603,16.5311315 5.8011212,17 5.21808425,17 C4.6350473,17 4.16240247,16.5311315 4.16240247,15.9527531 L4.16240247,6.07871277 C4.16240247,6.02750655 4.16610719,5.97715871 4.17326526,5.92791862 L4.17345091,3.41571401 L1.75805099,5.6458508 C1.48347939,5.89784651 1.09424383,5.98538837 0.736965569,5.87550021 C0.379687305,5.76561204 0.108645407,5.47498848 0.0259387409,5.1131046 C-0.0464295926,4.7964562 0.0350163972,4.46734225 0.240450171,4.22119397 L0.335997347,4.1210596 L4.51850804,0.272777049 C4.57085472,0.2330479 4.6268708,0.198317589 4.68580847,0.169049757 C4.73190471,0.133950436 4.78087021,0.102724132 4.83219634,0.0756951936 Z" id="Path-Copy" fill="#6C768D" transform="translate(5.224297, 8.500000) rotate(-180.000000) translate(-5.224297, -8.500000) "/>
            </g>
        </g>
    </g>
</svg>