<?xml version="1.0" encoding="UTF-8"?>
<svg width="36px" height="13px" viewBox="0 0 36 13" version="1.1" xmlns="http://www.w3.org/2000/svg" xmlns:xlink="http://www.w3.org/1999/xlink">
    <title>Drone for graph No Shadow</title>
    <g id="Route-Editor" stroke="none" stroke-width="1" fill="none" fill-rule="evenodd">
        <g id="0" transform="translate(-1734.000000, -213.000000)" fill="#979797">
            <path d="M1765.04131,214.024769 L1765.04303,214.035496 L1765.09748,214.355644 L1769.99187,214.390315 C1769.99187,214.390315 1769.60814,215.097496 1769.09669,215.079951 L1765.92248,215.119644 L1765.92248,216.860644 L1767.71253,216.861269 C1767.98641,216.861269 1768.24275,216.986414 1768.41114,217.196996 L1768.47772,217.29236 C1768.63981,217.559996 1768.65035,217.892906 1768.50544,218.170178 C1768.11572,218.916087 1767.64572,219.509815 1767.10553,219.93736 C1766.57236,220.356108 1766.00191,220.591331 1765.40689,220.638433 L1765.18263,220.647269 L1758.89163,220.647269 C1758.3529,220.647269 1757.84672,220.931269 1757.53672,221.408269 C1757.34219,221.706245 1757.12265,221.984514 1756.88114,222.241519 C1757.65334,223.04967 1758.23227,224.046062 1758.5418,225.154796 C1758.59836,225.357463 1758.4699,225.558765 1758.27445,225.600997 L1758.19825,225.609069 C1758.03798,225.609069 1757.89825,225.501887 1757.85525,225.347615 C1757.5778,224.352139 1757.05797,223.457551 1756.36337,222.731411 C1755.17104,223.737976 1753.58987,224.307996 1751.88153,224.307996 C1750.17175,224.307996 1748.59066,223.737785 1747.40071,222.732522 C1746.7052,223.457551 1746.1854,224.352139 1745.90798,225.347615 C1745.86489,225.501887 1745.72516,225.609069 1745.56489,225.609069 C1745.32834,225.609069 1745.1578,225.382796 1745.22134,225.154796 C1745.53087,224.046062 1746.10981,223.04967 1746.88308,222.240656 C1746.64247,221.984515 1746.42397,221.706743 1746.23053,221.40936 C1745.94649,220.975558 1745.50068,220.70066 1745.01728,220.654263 L1744.87126,220.647269 L1739.29963,220.647269 C1738.61853,220.647269 1737.97063,220.407724 1737.37672,219.937451 C1736.84372,219.519087 1736.37208,218.925542 1735.97499,218.173633 C1735.82863,217.89636 1735.83799,217.562542 1735.9999,217.293996 C1736.14165,217.059019 1736.38189,216.903945 1736.64978,216.868848 L1736.76608,216.861269 L1738.69447,216.860644 L1738.69447,215.119644 L1735.52365,215.079951 C1735.0122,215.097496 1734.62847,214.390315 1734.62847,214.390315 L1739.52147,214.355644 L1739.57491,214.035496 C1739.57554,214.03186 1739.57609,214.028133 1739.57673,214.024496 C1739.64873,213.599133 1740.28527,213.599496 1740.35709,214.024769 L1740.35882,214.035496 L1740.41347,214.355644 L1745.30765,214.390315 C1745.30765,214.390315 1744.92393,215.097496 1744.41247,215.079951 L1741.23747,215.119644 L1741.23747,216.860644 L1746.31481,216.861269 L1748.13253,214.48236 C1748.27763,214.292542 1748.49138,214.169915 1748.72507,214.138752 L1748.84335,214.130906 L1755.47063,214.130906 C1755.70953,214.130906 1755.93676,214.226416 1756.1034,214.393163 L1756.18144,214.48236 L1757.99917,216.861269 L1763.37948,216.860644 L1763.37948,215.119644 L1760.20787,215.079951 C1759.69642,215.097496 1759.31269,214.390315 1759.31269,214.390315 L1764.20648,214.355644 L1764.25913,214.035496 C1764.25976,214.03186 1764.2604,214.028133 1764.26103,214.024496 C1764.33294,213.599133 1764.96949,213.599496 1765.04131,214.024769 Z" id="Drone-for-graph-No-Shadow"></path>
        </g>
    </g>
</svg>