<?xml version="1.0" encoding="UTF-8"?>
<svg width="42px" height="19px" viewBox="0 0 42 19" version="1.1" xmlns="http://www.w3.org/2000/svg" xmlns:xlink="http://www.w3.org/1999/xlink">
    <title>Drone for graph</title>
    <defs>
        <path d="M1765.04131,173.855091 L1765.04303,173.865818 L1765.09748,174.185966 L1769.99187,174.220637 C1769.99187,174.220637 1769.60814,174.927818 1769.09669,174.910273 L1765.92248,174.949966 L1765.92248,176.690966 L1767.71253,176.691591 C1767.98641,176.691591 1768.24275,176.816736 1768.41114,177.027318 L1768.47772,177.122682 C1768.63981,177.390318 1768.65035,177.723227 1768.50544,178.0005 C1768.11572,178.746409 1767.64572,179.340137 1767.10553,179.767682 C1766.57236,180.186429 1766.00191,180.421653 1765.40689,180.468755 L1765.18263,180.477591 L1758.89163,180.477591 C1758.3529,180.477591 1757.84672,180.761591 1757.53672,181.238591 C1757.34219,181.536567 1757.12265,181.814836 1756.88114,182.071841 C1757.65334,182.879992 1758.23227,183.876384 1758.5418,184.985118 C1758.59836,185.187785 1758.4699,185.389087 1758.27445,185.431319 L1758.19825,185.439391 C1758.03798,185.439391 1757.89825,185.332209 1757.85525,185.177937 C1757.5778,184.182461 1757.05797,183.287873 1756.36337,182.561733 C1755.17104,183.568298 1753.58987,184.138318 1751.88153,184.138318 C1750.17175,184.138318 1748.59066,183.568107 1747.40071,182.562844 C1746.7052,183.287873 1746.1854,184.182461 1745.90798,185.177937 C1745.86489,185.332209 1745.72516,185.439391 1745.56489,185.439391 C1745.32834,185.439391 1745.1578,185.213118 1745.22134,184.985118 C1745.53087,183.876384 1746.10981,182.879992 1746.88308,182.070978 C1746.64247,181.814837 1746.42397,181.537065 1746.23053,181.239682 C1745.94649,180.80588 1745.50068,180.530982 1745.01728,180.484585 L1744.87126,180.477591 L1739.29963,180.477591 C1738.61853,180.477591 1737.97063,180.238046 1737.37672,179.767773 C1736.84372,179.349409 1736.37208,178.755864 1735.97499,178.003955 C1735.82863,177.726682 1735.83799,177.392864 1735.9999,177.124318 C1736.14165,176.889341 1736.38189,176.734267 1736.64978,176.69917 L1736.76608,176.691591 L1738.69447,176.690966 L1738.69447,174.949966 L1735.52365,174.910273 C1735.0122,174.927818 1734.62847,174.220637 1734.62847,174.220637 L1739.52147,174.185966 L1739.57491,173.865818 C1739.57554,173.862182 1739.57609,173.858455 1739.57673,173.854818 C1739.64873,173.429455 1740.28527,173.429818 1740.35709,173.855091 L1740.35882,173.865818 L1740.41347,174.185966 L1745.30765,174.220637 C1745.30765,174.220637 1744.92393,174.927818 1744.41247,174.910273 L1741.23747,174.949966 L1741.23747,176.690966 L1746.31481,176.691591 L1748.13253,174.312682 C1748.27763,174.122864 1748.49138,174.000237 1748.72507,173.969074 L1748.84335,173.961227 L1755.47063,173.961227 C1755.70953,173.961227 1755.93676,174.056738 1756.1034,174.223485 L1756.18144,174.312682 L1757.99917,176.691591 L1763.37948,176.690966 L1763.37948,174.949966 L1760.20787,174.910273 C1759.69642,174.927818 1759.31269,174.220637 1759.31269,174.220637 L1764.20648,174.185966 L1764.25913,173.865818 C1764.25976,173.862182 1764.2604,173.858455 1764.26103,173.854818 C1764.33294,173.429455 1764.96949,173.429818 1765.04131,173.855091 Z" id="path-1"></path>
        <filter x="-17.0%" y="-50.4%" width="133.9%" height="200.8%" filterUnits="objectBoundingBox" id="filter-2">
            <feOffset dx="0" dy="0" in="SourceAlpha" result="shadowOffsetOuter1"></feOffset>
            <feGaussianBlur stdDeviation="2" in="shadowOffsetOuter1" result="shadowBlurOuter1"></feGaussianBlur>
            <feColorMatrix values="0 0 0 0 0   0 0 0 0 0   0 0 0 0 0  0 0 0 1 0" type="matrix" in="shadowBlurOuter1"></feColorMatrix>
        </filter>
    </defs>
    <g id="Route-Editor" stroke="none" stroke-width="1" fill="none" fill-rule="evenodd">
        <g id="Drone-for-graph" transform="translate(-1731.000000, -170.000000)">
            <use fill="black" fill-opacity="1" filter="url(#filter-2)" xlink:href="#path-1"></use>
            <use fill="#979797" fill-rule="evenodd" xlink:href="#path-1"></use>
        </g>
    </g>
</svg>