<svg xmlns="http://www.w3.org/2000/svg" xmlns:xlink="http://www.w3.org/1999/xlink" viewBox="0 0 22 22" version="1.1">
    <title>Icons/Fx</title>
    <defs>
        <path d="M18.9726571,7.76096169 C19.3674821,7.76096169 19.6741719,7.81736442 19.8927358,7.93017156 C20.3016617,8.14168496 20.4391433,8.35672036 20.3051848,8.57528421 C20.2840335,8.61053644 20.2417314,8.6387378 20.1782774,8.65988914 L19.913887,8.78679655 C18.7999164,9.27327737 17.3792727,10.464785 15.6519133,12.3613551 C15.2923405,12.7561801 14.9786004,13.1333734 14.7106834,13.4929462 L15.08083,14.7302934 C15.539109,16.2108872 16.0819853,16.951173 16.709475,16.951173 C16.9844424,16.951173 17.2100533,16.9088709 17.3863145,16.8242655 L17.7670367,16.6550557 C17.8445916,16.6198034 17.9186202,16.6021776 17.9891247,16.6021776 C18.1371841,16.6021776 18.2112126,16.6762062 18.2112126,16.8242655 C18.2112126,17.4447049 17.8939473,17.9664301 17.2594071,18.3894569 C16.8363803,18.6714747 16.3569571,18.8124816 15.8211232,18.8124816 C14.7847075,18.8124816 13.8470122,17.7443549 13.008009,15.6080696 C12.1196528,16.9124022 11.2630363,17.8677234 10.4381341,18.4740618 C10.1349649,18.6926257 9.90054104,18.8019059 9.73485554,18.8019059 C9.56917004,18.8019059 9.4316884,18.7789923 9.32240647,18.7331644 C9.21312455,18.6873365 9.11265719,18.6291712 9.02100139,18.5586667 C8.80948799,18.3824056 8.70373287,18.2220103 8.70373287,18.0774762 C8.70373287,17.932942 8.78128662,17.8007481 8.93639645,17.6808905 L9.58150909,17.1626853 C10.7377823,16.210875 11.6931035,15.1780001 12.4475013,14.0640295 C11.8341125,12.3437205 11.5520988,10.9125013 11.601452,9.77032894 C11.6296537,9.20629321 11.8728905,8.71981969 12.3311695,8.31089378 C12.7541963,7.94427055 13.2054182,7.76096169 13.6848485,7.76096169 C13.8258575,7.76096169 13.9175119,7.81031408 13.9598146,7.90902033 C14.0021173,8.00772658 14.0232683,8.15049599 14.0232683,8.33733282 C14.0232683,8.52416966 14.0162179,8.7215792 14.002117,8.92956738 C13.9880161,9.13755556 13.9862536,9.35611612 13.9968292,9.58525564 C14.0074049,9.81439516 14.0232682,10.0629197 14.0444195,10.3308366 C14.114924,11.0499822 14.1819022,11.6104843 14.2453562,12.0123598 L14.5943516,11.4307008 C15.3981025,10.15457 16.3357979,9.14284606 17.4074657,8.39549872 C18.0138042,7.97247192 18.5355294,7.76096169 18.9726571,7.76096169 Z M3.71732941,2.2616408 C4.38359662,2.2616408 5.01460213,2.29512992 5.61036487,2.36210916 C6.20612761,2.4290884 6.80011883,2.50487957 7.39235635,2.58948493 C8.96460596,2.80099833 9.96575436,2.90675344 10.3958316,2.90675344 C10.8259089,2.90675344 11.1449368,2.88207725 11.352925,2.83272412 C11.5609131,2.783371 11.7389342,2.70934242 11.8869936,2.61063616 C12.035053,2.51192991 12.1390455,2.44671426 12.1989743,2.41498725 C12.2589031,2.38326024 12.3558453,2.36739697 12.4898038,2.36739697 C12.7013172,2.36739697 12.7929716,2.52779222 12.7647698,2.84858755 C12.7365681,3.16938287 12.6590143,3.44434616 12.5321063,3.67348568 C12.4051982,3.9026252 12.2395152,4.09122182 12.0350523,4.2392812 C11.6190759,4.5424504 11.0903003,4.69403273 10.4487097,4.69403273 C9.80711905,4.69403273 9.02805638,4.65173069 8.11149832,4.56712533 C7.87883358,5.03950525 7.65674784,5.65993525 7.44523444,6.42843394 L6.47227767,9.91838758 C7.13501965,9.81263088 7.64088161,9.75975332 7.98987872,9.75975332 C8.33887583,9.75975332 8.62617722,9.79500503 8.85179151,9.86550949 C9.07740581,9.93601396 9.27834052,10.0347187 9.45460169,10.1616268 C9.86352759,10.4365942 10.0644623,10.7750106 10.0574119,11.176886 C10.0503614,11.5787615 9.85295187,11.7796962 9.4651773,11.7796962 C9.26071435,11.7726457 9.04744154,11.7603076 8.82535247,11.7426815 C8.6032634,11.7250554 8.3406382,11.7127173 8.037469,11.7056669 C7.37472701,11.691566 6.65559224,11.7197673 5.88004311,11.7902718 C5.70378194,12.3966102 5.41295538,13.1421838 5.0075547,14.0270148 C4.60215401,14.9118459 4.20204717,15.6609446 3.80722216,16.2743335 C2.96116856,17.5857165 2.10102697,18.3965057 1.22677158,18.7067254 C1.09986354,18.7560785 0.971194823,18.7807547 0.840761559,18.7807547 C0.710328296,18.7807547 0.592235086,18.7578411 0.486478387,18.7120132 C0.380721687,18.6661853 0.292592426,18.60802 0.222087959,18.5375155 C0.0740285794,18.403557 -1.5187851e-13,18.2554999 -1.5187851e-13,18.0933396 C-1.5187851e-13,17.9311793 0.0528775567,17.8113235 0.158634257,17.7337686 C1.15979768,17.0075726 2.18914745,15.1780091 3.24671445,12.2450233 L3.01405087,12.308477 C2.93649596,12.3296284 2.86951772,12.3507794 2.81311415,12.3719307 C2.75671058,12.3930821 2.69149492,12.4036576 2.61746523,12.4036576 C2.54343554,12.4036576 2.46235662,12.380744 2.37422604,12.3349161 C2.28609546,12.2890882 2.20677912,12.234448 2.13627465,12.170994 C1.98116483,12.0299851 1.90361108,11.8925034 1.90361108,11.758545 C1.90361108,11.6245865 1.96530156,11.4994429 2.08868438,11.3831105 C2.21206719,11.2667782 2.36541211,11.1557353 2.54872372,11.0499786 C2.88714516,10.8525661 3.31369078,10.6692572 3.82837339,10.5000465 L4.39945671,8.72334285 C5.06924915,6.64346108 5.71083017,5.20166637 6.32421903,4.39791545 C5.7460824,4.34856233 5.31953678,4.32388613 5.04456936,4.32388613 C4.21261665,4.32388613 3.61333768,4.44021676 3.24671445,4.6728815 C2.88714167,4.90554624 2.63509198,5.15759592 2.49055783,5.42903812 C2.34602367,5.70048032 2.27023251,5.88907693 2.26318206,5.99483363 C2.24203072,6.19224614 2.17857765,6.31738969 2.07282095,6.37026804 C1.96706425,6.42314639 1.83839553,6.44958517 1.68681093,6.44958517 C1.53522632,6.44958517 1.37835624,6.39494503 1.21619597,6.2856631 C1.05403569,6.17638118 0.920079216,6.03713695 0.814322517,5.86792623 C0.588708224,5.52245434 0.500578963,5.13292301 0.549932089,4.69932054 C0.599285216,4.26571807 0.742054619,3.89205 0.978244582,3.57830513 C1.21443454,3.26456025 1.4946856,3.00898539 1.81900614,2.81157289 C2.41829411,2.44494966 3.0510622,2.2616408 3.71732941,2.2616408 Z" id="path-1"/>
        <filter x="-34.4%" y="-30.2%" width="168.8%" height="184.6%" filterUnits="objectBoundingBox" id="filter-2">
            <feOffset dx="0" dy="2" in="SourceAlpha" result="shadowOffsetOuter1"/>
            <feGaussianBlur stdDeviation="2" in="shadowOffsetOuter1" result="shadowBlurOuter1"/>
            <feColorMatrix values="0 0 0 0 0   0 0 0 0 0   0 0 0 0 0  0 0 0 0.0610795455 0" type="matrix" in="shadowBlurOuter1"/>
        </filter>
    </defs>
    <g id="New-Bakash" stroke="none" stroke-width="1" fill="none" fill-rule="evenodd">
        <g id="New-Bakash-4" transform="translate(-1103.000000, -464.000000)">
            <g id="Popups/Bakash-Expansion-full" transform="translate(723.000000, 237.000000)">
                <g id="Popup/Plan-" transform="translate(20.000000, 199.000000)">
                    <g id="Plan/Fire-Plan/Plan-Light-2" transform="translate(93.000000, 28.000000)">
                        <g id="Combined-Shape" transform="translate(267.998630, 0.822616)">
                            <use fill="black" fill-opacity="1" filter="url(#filter-2)" xlink:href="#path-1"/>
                            <use fill="#ADB8D3" fill-rule="evenodd" xlink:href="#path-1"/>
                        </g>
                    </g>
                </g>
            </g>
        </g>
    </g>
</svg>