<svg xmlns="http://www.w3.org/2000/svg" viewBox="0 0 24 25" version="1.1">
    <title>Actions/Show_Points_Off</title>
    <g id="Route-Editor" stroke="none" stroke-width="1" fill="none" fill-rule="evenodd">
        <g id="0" transform="translate(-1547.000000, -681.000000)">
            <g id="Actions/Show_Points_Off" transform="translate(1547.000000, 681.659778)">
                <g id="Components/Buttons/1" fill="#8C8D8C">

                </g>
                <path d="M19.2855125,7.83338901 C19.9883405,9.06134197 20.3900706,10.4837564 20.3900706,12 C20.3900706,16.6391919 16.6292625,20.4 11.9900706,20.4 C10.476272,20.4 9.05600006,19.9995643 7.82940128,19.2988394 L8.89957896,18.2275639 C9.83048994,18.6904285 10.8798846,18.950707 11.9900706,18.950707 C15.8288401,18.950707 18.9407777,15.8387695 18.9407777,12 C18.9407777,10.8878442 18.6795747,9.83669559 18.2151689,8.90455426 L19.2855125,7.83338901 Z M19.4599298,3.60661315 C19.703056,3.60661315 19.9461822,3.69936267 20.1316812,3.88486171 C20.2991655,4.05234602 20.3910152,4.26681246 20.4073017,4.48582696 C20.4208096,4.66747622 20.3822301,4.85222694 20.2917308,5.01594557 L20.214124,5.13441395 L5.42528164,19.9347642 C5.2397826,20.1202632 4.9966564,20.2130127 4.7535302,20.2130127 C4.510404,20.2130127 4.2672778,20.1202632 4.08177876,19.9347642 C3.91429445,19.7672799 3.82244473,19.5528134 3.80615825,19.3337989 C3.79265035,19.1521497 3.83122983,18.9673989 3.92172916,18.8036803 L3.99933601,18.6852119 L18.7881783,3.88486171 C18.9736774,3.69936267 19.2168036,3.60661315 19.4599298,3.60661315 Z M11.9900706,3.6 C13.5179084,3.6 14.9504766,4.00789744 16.1848167,4.72073372 L15.1164197,5.79039462 C14.176633,5.31630921 13.1145343,5.04929298 11.9900706,5.04929298 C8.15130116,5.04929298 5.03936362,8.16123051 5.03936362,12 C5.03936362,13.1264731 5.30733502,14.1903581 5.78300881,15.131386 L4.71429635,16.2007869 C3.99930036,14.9650809 3.59007065,13.5303308 3.59007065,12 C3.59007065,7.3608081 7.35087875,3.6 11.9900706,3.6 Z M11.8950706,15.228 L15.2198793,11.902023 L15.2213364,12 L15.2213364,12 C15.2213364,13.7845788 13.7746494,15.2312657 11.9900706,15.2312657 L11.8950706,15.228 Z M11.9900706,8.76873429 L12.1370706,8.772 L8.76220153,12.1494886 L8.75880493,12 L8.75880493,12 C8.75880493,10.2154212 10.2054919,8.76873429 11.9900706,8.76873429 Z" id="Shape" fill="#FFFFFF"/>
            </g>
        </g>
    </g>
</svg>