<svg width="24px" height="24px" viewBox="0 0 24 24" version="1.1" xmlns="http://www.w3.org/2000/svg" xmlns:xlink="http://www.w3.org/1999/xlink">
    <title>Actions/Undo</title>
    <g id="Route-Editor" stroke="none" stroke-width="1" fill="none" fill-rule="evenodd">
        <g id="0" transform="translate(-1504.000000, -443.000000)">
            <g id="Actions/Undo" transform="translate(1504.000000, 443.000000)">                
                <g id="Group-3" transform="translate(5.081814, 4.953144)" fill="#FFFFFF">
                    <path d="M0.214038277,10.7465933 C0.214038277,10.7925203 0.246843277,10.8253253 0.292770277,10.8253253 L6.68318428,10.8187643 C6.74879428,10.8187643 6.78816028,10.7334713 6.73567228,10.6875443 C5.90242528,9.8542973 5.02325128,8.9751233 4.18344328,8.1418763 C5.57437528,7.0199453 7.14901528,6.5475533 8.90080228,6.8624813 C11.1709083,7.2692633 12.6602553,8.6339513 13.4935023,10.7597153 L13.5591123,10.9303013 C13.6050393,11.0615213 13.7165763,11.1336923 13.8412353,11.1468143 C13.8937233,11.1599363 13.9527723,11.1533753 14.0052603,11.1336923 L14.2742613,11.0352773 L14.2939443,11.0287163 L15.0353373,10.7465933 C15.2124843,10.6809833 15.3043383,10.4907143 15.2321673,10.2873233 C14.6403651,8.7389273 13.8235206,7.418198 12.4667058,6.4268309 C11.2916307,5.567996 9.87445468,5.0523014 8.42250538,4.9532303 C6.38203438,4.813481 4.36846348,5.5201007 2.83187728,6.8624813 L0.345258277,4.3430573 C0.299331277,4.2905693 0.214038277,4.3233743 0.214038277,4.3955453 L0.214038277,10.7465933 Z" id="Fill-1" transform="translate(7.735467, 7.735467) rotate(45.000000) translate(-7.735467, -7.735467) "/>
                </g>
            </g>
        </g>
    </g>
</svg>