<svg xmlns="http://www.w3.org/2000/svg" xmlns:xlink="http://www.w3.org/1999/xlink" viewBox="0 0 16 14" version="1.1">    
    <g id="Route-Editor-New" stroke="none" stroke-width="1" fill="none" fill-rule="evenodd">
        <g id="Warning" transform="translate(-1799.000000, -733.000000)">
            <g id="Group-2-Copy" transform="translate(1613.502270, 727.602337)">
                <g id="Group" transform="translate(186.700000, 6.500000)">
                    <path d="M7.01153846,0.125 C7.26189956,0.125 7.50262198,0.191731667 7.71200867,0.312624678 C7.92145135,0.433550009 8.09955228,0.608668976 8.22451181,0.825335576 L8.22451181,0.825335576 L13.7094904,10.3266151 C13.8348914,10.5434398 13.8975641,10.7853144 13.8975641,11.0271795 C13.8975641,11.2690445 13.8348914,11.5109192 13.7097176,11.7273505 C13.5846805,11.9441515 13.4065796,12.1192705 13.1971369,12.2401958 C12.9877502,12.3610888 12.7470278,12.4278205 12.4966667,12.4278205 L12.4966667,12.4278205 L1.52589744,12.4278205 C1.27553634,12.4278205 1.03481392,12.3610888 0.825427224,12.2401958 C0.615984552,12.1192705 0.437883622,11.9441515 0.313073706,11.7277439 C0.18767268,11.5109192 0.125,11.2690445 0.125,11.0271795 C0.125,10.7853144 0.18767268,10.5434398 0.312931675,10.3268609 L0.312931675,10.3268609 L5.79848753,0.825470026 C5.92352465,0.608668976 6.10162558,0.433550009 6.31106825,0.312624678 C6.52045495,0.191731667 6.76117737,0.125 7.01153846,0.125 Z" id="Fill-1" stroke="#FFFFFF" stroke-width="0.75" fill="#DC3F3F"/>
                    <path d="M7.26369231,4.34415385 C7.49710609,4.34415385 7.6849904,4.53587381 7.6802739,4.76923994 L7.6202739,7.73795789 C7.61569029,7.96474884 7.43052958,8.14620513 7.20369231,8.14620513 L6.80984615,8.14620513 C6.58250505,8.14620513 6.39712769,7.96397087 6.3932404,7.736663 L6.34247117,4.76794505 C6.33848873,4.53507306 6.52617088,4.34415385 6.75907692,4.34415385 L7.26369231,4.34415385 Z" id="Stroke-6" fill="#FFFFFF" fill-rule="nonzero"/>
                    <path d="M6.78317949,10.1745192 L7.24574359,10.1745192 C7.47586224,10.1745192 7.66241026,9.98797115 7.66241026,9.7578525 L7.66241026,9.20503199 C7.66241026,8.97491334 7.47586224,8.78836532 7.24574359,8.78836532 L6.78317949,8.78836532 C6.55306084,8.78836532 6.36651282,8.97491334 6.36651282,9.20503199 L6.36651282,9.7578525 C6.36651282,9.98797115 6.55306084,10.1745192 6.78317949,10.1745192 Z" id="Stroke-10" fill="#FFFFFF" fill-rule="nonzero"/>
                </g>
            </g>
        </g>
    </g>
</svg>